<svg width="30" height="31" viewBox="0 0 30 31" fill="none" xmlns="http://www.w3.org/2000/svg">
<g clip-path="url(#clip0_433_944)">
<path d="M14.9996 12.2349C13.4305 12.2349 12.1585 10.9629 12.1585 9.39384C12.1585 7.82474 13.4305 6.55274 14.9996 6.55274C16.5687 6.55274 17.8407 7.82474 17.8407 9.39384C17.8407 10.9629 16.5687 12.2349 14.9996 12.2349ZM14.2021 30.905C13.0153 28.9549 11.5052 27.1461 9.67442 25.4794C7.54184 23.538 4.71321 22.1563 1.19995 21.326V17.5113C1.19995 17.025 1.62449 16.6479 2.10733 16.7052C6.23894 17.1954 9.95843 18.6691 13.2521 21.1218C16.5466 23.5752 19.0583 27.2522 20.2759 30.905H14.2021ZM12.2734 30.905H2.01169C1.56338 30.905 1.19995 30.5416 1.19995 30.0932V22.9971C4.28342 23.7739 6.74056 25.004 8.58151 26.6799C10.0307 27.9992 11.2609 29.4074 12.2734 30.905ZM20.7628 24.9498C20.3648 25.2107 19.9823 25.4767 19.6154 25.7479C18.5662 24.067 17.2925 22.5111 15.8566 21.1812C15.883 21.1614 15.9095 21.1416 15.9361 21.1218C19.237 18.6637 23.2315 17.1921 27.9039 16.7039C28.3829 16.6539 28.8 17.0296 28.8 17.5113V22.097C25.4755 22.6698 22.7962 23.6168 20.7628 24.9498ZM28.8 30.0932C28.8 30.5416 28.4365 30.905 27.9882 30.905H21.9872L21.8161 30.3916C21.4507 29.2955 20.9845 28.2127 20.4308 27.165C20.818 26.8736 21.2253 26.5878 21.6528 26.3076C23.4277 25.1441 25.8099 24.2865 28.8 23.7456V30.0932ZM15.8113 3.71164V4.52339C15.8113 5.60571 14.1878 5.60571 14.1878 4.52339V3.71164C14.1878 2.62932 15.8113 2.62932 15.8113 3.71164ZM14.1878 15.076V14.2643C14.1878 13.182 15.8113 13.182 15.8113 14.2643V15.076C15.8113 16.1583 14.1878 16.1583 14.1878 15.076ZM19.5915 5.94991L19.0175 6.5239C18.2522 7.28921 17.1042 6.14124 17.8695 5.37592L18.4435 4.80193C19.2088 4.03661 20.3568 5.18459 19.5915 5.94991ZM10.4077 12.8378L10.9816 12.2638C11.747 11.4985 12.8949 12.6464 12.1296 13.4118L11.5556 13.9857C10.7903 14.7511 9.64234 13.6031 10.4077 12.8378ZM11.5556 4.80193L12.1296 5.37592C12.8949 6.14124 11.747 7.28921 10.9816 6.5239L10.4077 5.94991C9.64234 5.18459 10.7903 4.03661 11.5556 4.80193ZM18.4435 13.9857L17.8695 13.4118C17.1042 12.6464 18.2522 11.4985 19.0175 12.2638L19.5915 12.8378C20.3568 13.6031 19.2088 14.7511 18.4435 13.9857ZM20.6818 10.2056H19.87C18.7877 10.2056 18.7877 8.58209 19.87 8.58209H20.6818C21.7641 8.58209 21.7641 10.2056 20.6818 10.2056ZM9.31737 8.58209H10.1291C11.2114 8.58209 11.2114 10.2056 10.1291 10.2056H9.31737C8.23505 10.2056 8.23505 8.58209 9.31737 8.58209Z" fill="#DE5013"/>
</g>
<defs>
<clipPath id="clip0_433_944">
<rect y="0.5" width="30" height="30" rx="15" fill="white"/>
</clipPath>
</defs>
</svg>
