<svg width="25" height="25" viewBox="0 0 25 25" fill="none" xmlns="http://www.w3.org/2000/svg">
<path d="M20.783 10.8559H12.456V14.3069H17.248C16.802 16.4999 14.935 17.7599 12.456 17.7599C11.7623 17.7611 11.0753 17.6253 10.4342 17.3604C9.79312 17.0955 9.21065 16.7066 8.7202 16.216C8.22975 15.7255 7.84097 15.1429 7.57615 14.5018C7.31134 13.8607 7.1757 13.1736 7.17701 12.4799C7.17583 11.7863 7.31156 11.0993 7.57644 10.4583C7.84131 9.81731 8.23012 9.23489 8.72055 8.74445C9.21099 8.25402 9.79341 7.86521 10.4344 7.60034C11.0754 7.33546 11.7624 7.19973 12.456 7.20091C13.715 7.20091 14.853 7.64791 15.746 8.37891L18.346 5.77991C16.762 4.39891 14.731 3.54691 12.456 3.54691C11.2818 3.54348 10.1185 3.77222 9.03306 4.21998C7.94759 4.66774 6.96135 5.32569 6.13107 6.15597C5.30079 6.98625 4.64284 7.97249 4.19508 9.05796C3.74732 10.1434 3.51858 11.3067 3.52201 12.4809C3.51845 13.6551 3.7471 14.8185 4.19481 15.904C4.64253 16.9896 5.30046 17.9758 6.13077 18.8062C6.96108 19.6365 7.94737 20.2944 9.03291 20.7421C10.1184 21.1898 11.2818 21.4185 12.456 21.4149C16.923 21.4149 20.985 18.1659 20.985 12.4809C20.985 11.9529 20.904 11.3839 20.783 10.8559Z" fill="#DE5013"/>
</svg>
