<svg width="24" height="24" viewBox="0 0 24 24" fill="none" xmlns="http://www.w3.org/2000/svg">
<path d="M12.1157 6.87698L11.6829 7.29374C11.739 7.35192 11.8062 7.39819 11.8806 7.4298C11.9549 7.4614 12.0349 7.47769 12.1157 7.47769C12.1965 7.47769 12.2765 7.4614 12.3508 7.4298C12.4252 7.39819 12.4924 7.35192 12.5485 7.29374L12.1157 6.87698ZM10.0527 17.1533C8.83773 16.1956 7.50971 15.2603 6.45579 14.0741C5.42351 12.9104 4.70219 11.5527 4.70219 9.7919H3.5C3.5 11.9286 4.38962 13.5588 5.55735 14.8724C6.70344 16.1627 8.16531 17.1966 9.30819 18.0974L10.0536 17.1533H10.0527ZM4.70219 9.7919C4.70219 8.06875 5.67597 6.62292 7.00559 6.01461C8.29755 5.42393 10.0335 5.58022 11.6829 7.29374L12.5485 6.46102C10.5929 4.42771 8.31999 4.0919 6.50548 4.92141C4.73105 5.73329 3.5 7.61833 3.5 9.7919H4.70219ZM9.30819 18.0974C9.71934 18.4212 10.1601 18.7659 10.6066 19.0271C11.053 19.2876 11.5627 19.5 12.1157 19.5V18.2978C11.8673 18.2978 11.5755 18.2016 11.2133 17.9892C10.8502 17.7777 10.4743 17.4859 10.0527 17.1533L9.30819 18.0974ZM14.9232 18.0974C16.0661 17.1958 17.528 16.1635 18.6741 14.8724C19.8418 13.558 20.7314 11.9286 20.7314 9.7919H19.5292C19.5292 11.5527 18.8079 12.9104 17.7756 14.0741C16.7217 15.2603 15.3937 16.1956 14.1787 17.1533L14.9232 18.0974ZM20.7314 9.7919C20.7314 7.61833 19.5012 5.73329 17.7259 4.92141C15.9114 4.0919 13.6401 4.42771 11.6829 6.46022L12.5485 7.29374C14.1979 5.58102 15.9339 5.42393 17.2258 6.01461C18.5555 6.62292 19.5292 8.06795 19.5292 9.7919H20.7314ZM14.1787 17.1533C13.7571 17.4859 13.3812 17.7777 13.0182 17.9892C12.6559 18.2008 12.3642 18.2978 12.1157 18.2978V19.5C12.6687 19.5 13.1785 19.2876 13.6249 19.0271C14.0721 18.7659 14.5121 18.4212 14.9232 18.0974L14.1787 17.1533Z" fill="#DE5013"/>
</svg>
