<svg width="17" height="19" viewBox="0 0 17 13" fill="none" xmlns="http://www.w3.org/2000/svg">
	<path d="M7.8441 0.518655C8.05055 -0.116732 8.94945 -0.116731 9.1559 0.518656L10.5903 4.93329C10.6826 5.21744 10.9474 5.40983 11.2462 5.40983H15.888C16.5561 5.40983 16.8339 6.26474 16.2934 6.65743L12.5381 9.38582C12.2964 9.56144 12.1952 9.87273 12.2876 10.1569L13.722 14.5715C13.9284 15.2069 13.2012 15.7353 12.6607 15.3426L8.90537 12.6142C8.66365 12.4386 8.33635 12.4386 8.09463 12.6142L4.33932 15.3426C3.79883 15.7353 3.0716 15.2069 3.27805 14.5715L4.71245 10.1569C4.80478 9.87273 4.70363 9.56144 4.46192 9.38582L0.706606 6.65743C0.166113 6.26474 0.44389 5.40983 1.11198 5.40983H5.7538C6.05257 5.40983 6.31737 5.21744 6.4097 4.93329L7.8441 0.518655Z" fill="#4340CB" />
</svg>
